<svg xmlns="http://www.w3.org/2000/svg" viewBox="0 0 100 100">
  <defs>
    <radialGradient id="g" cx="38%" cy="35%" r="62%">
      <stop offset="0%" stop-color="#6dcc72"/>
      <stop offset="45%" stop-color="#3a9e3f"/>
      <stop offset="100%" stop-color="#1a5c1e"/>
    </radialGradient>
    <radialGradient id="s" cx="38%" cy="30%" r="45%">
      <stop offset="0%" stop-color="#fff" stop-opacity="0.22"/>
      <stop offset="100%" stop-color="#fff" stop-opacity="0"/>
    </radialGradient>
    <clipPath id="c"><circle cx="50" cy="50" r="44"/></clipPath>
  </defs>
  <circle cx="50" cy="50" r="46" fill="rgba(0,0,0,0.3)"/>
  <circle cx="50" cy="50" r="44" fill="url(#g)"/>
  <g clip-path="url(#c)" stroke="#1a5c1e" stroke-width="1.4" stroke-opacity="0.6" fill="none">
    <line x1="50" y1="50" x2="28" y2="28"/>
    <line x1="50" y1="50" x2="72" y2="28"/>
    <line x1="50" y1="50" x2="20" y2="58"/>
    <line x1="50" y1="50" x2="78" y2="60"/>
    <line x1="50" y1="50" x2="48" y2="82"/>
    <line x1="50" y1="50" x2="68" y2="74"/>
    <line x1="28" y1="28" x2="72" y2="28"/>
    <line x1="28" y1="28" x2="20" y2="58"/>
    <line x1="72" y1="28" x2="78" y2="60"/>
    <line x1="20" y1="58" x2="48" y2="82"/>
    <line x1="78" y1="60" x2="68" y2="74"/>
    <line x1="48" y1="82" x2="68" y2="74"/>
  </g>
  <circle cx="50" cy="50" r="5" fill="#0d3010" stroke="#1a5c1e" stroke-width="1.5"/>
  <circle cx="50" cy="50" r="2.5" fill="#6dcc72"/>
  <circle cx="28" cy="28" r="4.5" fill="#0d3010" stroke="#1a5c1e" stroke-width="1.2"/>
  <circle cx="28" cy="28" r="2.2" fill="#4caf50"/>
  <circle cx="72" cy="28" r="4.5" fill="#0d3010" stroke="#1a5c1e" stroke-width="1.2"/>
  <circle cx="72" cy="28" r="2.2" fill="#4caf50"/>
  <circle cx="20" cy="58" r="4.5" fill="#0d3010" stroke="#1a5c1e" stroke-width="1.2"/>
  <circle cx="20" cy="58" r="2.2" fill="#4caf50"/>
  <circle cx="78" cy="60" r="4.5" fill="#0d3010" stroke="#1a5c1e" stroke-width="1.2"/>
  <circle cx="78" cy="60" r="2.2" fill="#4caf50"/>
  <circle cx="48" cy="82" r="4.5" fill="#0d3010" stroke="#1a5c1e" stroke-width="1.2"/>
  <circle cx="48" cy="82" r="2.2" fill="#4caf50"/>
  <circle cx="68" cy="74" r="4.5" fill="#0d3010" stroke="#1a5c1e" stroke-width="1.2"/>
  <circle cx="68" cy="74" r="2.2" fill="#4caf50"/>
  <circle cx="50" cy="50" r="44" fill="url(#s)"/>
</svg>
